# xmcd CD database file
#
# Track frame offsets:
#	150
#	31571
#	49889
#	76404
#	92753
#	127669
#	149581
#
# Disc length: 2484 seconds
#
# Revision: 0
# Processed by: cddbd v1.5.2PL0 Copyright (c) Steve Scherf et al.
# Submitted via: CDex 1.51
#
DISCID=5009b207
DTITLE=Michal Urbaniak - Inactin
DYEAR=1900
DGENRE=Jazz
TTITLE0=Inactin
TTITLE1=Alu
TTITLE2=Ekim
TTITLE3=Silence
TTITLE4=Fall
TTITLE5=Groovy Desert
TTITLE6=Lato
EXTD=
EXTT0=
EXTT1=
EXTT2=
EXTT3=
EXTT4=
EXTT5=
EXTT6=
PLAYORDER=
